# xmcd CD database file
#
# Track frame offsets:
#	150
#	17168
#	35279
#	44117
#	62358
#	74766
#	88109
#	105550
#	115268
#	133040
#	151688
#
# Disc length: 2390 seconds
#
# Revision: 0
# Processed by: cddbd v1.4PL0 Copyright (c) Steve Scherf et al.
# Submitted via: CDex 1.50beta9
#
DISCID=9209540b
DTITLE=Enya - Shepherd Moons
DYEAR=1900
DGENRE=New Age
TTITLE0=Shepherd Moons
TTITLE1=Caribbean Blue
TTITLE2=How Can I Keep From Singing
TTITLE3=Ebuda
TTITLE4=Angeles
TTITLE5=No Holly For Miss Quinn
TTITLE6=Book Of Days
TTITLE7=Evacuee
TTITLE8=Lothlorien
TTITLE9=Marble Halls
TTITLE10=After Ventus
EXTD=
EXTT0=
EXTT1=
EXTT2=
EXTT3=
EXTT4=
EXTT5=
EXTT6=
EXTT7=
EXTT8=
EXTT9=
EXTT10=
PLAYORDER=
